HIERARCHY
ROOT Hips
{
	OFFSET 0.00000 0.00000 0.00000
	CHANNELS 6 Xposition Yposition Zposition Zrotation Yrotation Xrotation 
	JOINT LHipJoint
	{
		OFFSET 0 0 0
		CHANNELS 3 Zrotation Yrotation Xrotation
		JOINT LeftUpLeg
		{
			OFFSET 1.23340 -1.80723 0.69510
			CHANNELS 3 Zrotation Yrotation Xrotation
			JOINT LeftLeg
			{
				OFFSET 2.50056 -6.87023 0.00000
				CHANNELS 3 Zrotation Yrotation Xrotation
				JOINT LeftFoot
				{
					OFFSET 2.85931 -7.85591 0.00000
					CHANNELS 3 Zrotation Yrotation Xrotation
					JOINT LeftToeBase
					{
						OFFSET 0.21001 -0.57700 2.07823
						CHANNELS 3 Zrotation Yrotation Xrotation
						End Site
						{
							OFFSET 0.00000 -0.00000 1.08338
						}
					}
				}
			}
		}
	}
	JOINT RHipJoint
	{
		OFFSET 0 0 0
		CHANNELS 3 Zrotation Yrotation Xrotation
		JOINT RightUpLeg
		{
			OFFSET -1.40842 -1.80723 0.69510
			CHANNELS 3 Zrotation Yrotation Xrotation
			JOINT RightLeg
			{
				OFFSET -2.54876 -7.00266 0.00000
				CHANNELS 3 Zrotation Yrotation Xrotation
				JOINT RightFoot
				{
					OFFSET -2.74835 -7.55104 0.00000
					CHANNELS 3 Zrotation Yrotation Xrotation
					JOINT RightToeBase
					{
						OFFSET -0.22633 -0.62184 2.00890
						CHANNELS 3 Zrotation Yrotation Xrotation
						End Site
						{
							OFFSET -0.00000 -0.00000 1.05493
						}
					}
				}
			}
		}
	}
	JOINT LowerBack
	{
		OFFSET 0 0 0
		CHANNELS 3 Zrotation Yrotation Xrotation
		JOINT Spine
		{
			OFFSET -0.02340 2.02740 -0.12728
			CHANNELS 3 Zrotation Yrotation Xrotation
			JOINT Spine1
			{
				OFFSET -0.00862 2.03614 -0.01188
				CHANNELS 3 Zrotation Yrotation Xrotation
				JOINT Neck
				{
					OFFSET 0 0 0
					CHANNELS 3 Zrotation Yrotation Xrotation
					JOINT Neck1
					{
						OFFSET 0.03380 1.76650 0.27670
						CHANNELS 3 Zrotation Yrotation Xrotation
						JOINT Head
						{
							OFFSET -0.01114 1.80516 -0.21451
							CHANNELS 3 Zrotation Yrotation Xrotation
							End Site
							{
								OFFSET -0.00766 1.81942 -0.10287
							}
						}
					}
				}
				JOINT LeftShoulder
				{
					OFFSET 0 0 0
					CHANNELS 3 Zrotation Yrotation Xrotation
					JOINT LeftArm
					{
						OFFSET 3.22358 1.39475 0.18630
						CHANNELS 3 Zrotation Yrotation Xrotation
						JOINT LeftForeArm
						{
							OFFSET 5.45077 -0.00000 0.00000
							CHANNELS 3 Zrotation Yrotation Xrotation
							JOINT LeftHand
							{
								OFFSET 3.05488 -0.00000 0.00000
								CHANNELS 3 Zrotation Yrotation Xrotation
								JOINT LeftFingerBase
								{
									OFFSET 0 0 0
									CHANNELS 3 Zrotation Yrotation Xrotation
									JOINT LeftHandIndex1
									{
										OFFSET 0.63882 -0.00000 0.00000
										CHANNELS 3 Zrotation Yrotation Xrotation
										End Site
										{
											OFFSET 0.51503 -0.00000 0.00000
										}
									}
								}
								JOINT LThumb
								{
									OFFSET 0 0 0
									CHANNELS 3 Zrotation Yrotation Xrotation
									End Site
									{
										OFFSET 0.52290 -0.00000 0.52290
									}
								}
							}
						}
					}
				}
				JOINT RightShoulder
				{
					OFFSET 0 0 0
					CHANNELS 3 Zrotation Yrotation Xrotation
					JOINT RightArm
					{
						OFFSET -3.57143 1.14055 0.30691
						CHANNELS 3 Zrotation Yrotation Xrotation
						JOINT RightForeArm
						{
							OFFSET -4.88702 -0.00000 -0.00000
							CHANNELS 3 Zrotation Yrotation Xrotation
							JOINT RightHand
							{
								OFFSET -3.22603 -0.00000 0.00000
								CHANNELS 3 Zrotation Yrotation Xrotation
								JOINT RightFingerBase
								{
									OFFSET 0 0 0
									CHANNELS 3 Zrotation Yrotation Xrotation
									JOINT RightHandIndex1
									{
										OFFSET -0.71629 -0.00000 0.00000
										CHANNELS 3 Zrotation Yrotation Xrotation
										End Site
										{
											OFFSET -0.57749 -0.00000 0.00000
										}
									}
								}
								JOINT RThumb
								{
									OFFSET 0 0 0
									CHANNELS 3 Zrotation Yrotation Xrotation
									End Site
									{
										OFFSET -0.58631 -0.00000 0.58631
									}
								}
							}
						}
					}
				}
			}
		}
	}
}
MOTION
Frames: 15
Frame Time: .0083333
12.9317 17.9389 13.9322 0 0 0 0 0 0 -21 0 0 0 0 0 0 0 0 0 0 0 0 0 0 21 0 0 0 0 0 0 0 0 0 0 0 0 0 0 0 0 0 0 0 0 0 0 -16 0 0 21 0 0 11 0 0 0 -8 0 0 0 0 0 0 0 0 0 0 0 0 0 0 0 0 0 0 0 0 8 0 0 0 0 0 0 0 0 0 0 0 0 0 0 0 0 0
12.9317 17.9389 13.9322 177.3850 -38.1281 -166.6980 0.0000 0.0000 0.0000 -15.8643 -1.9955 -31.6504 6.4482 14.8490 46.7550 0.4067 -9.5328 -12.3043 0.8558 -5.8997 -16.4937 0.0000 0.0000 0.0000 18.7747 3.4973 -19.2357 -2.6388 -10.0860 29.2558 -1.0679 13.4705 -19.4303 -0.0231 -0.9814 2.6977 -1.2711 -1.2921 -7.0346 -0.2077 -1.7498 -2.6873 0.3595 -0.9202 1.2013 0.1919 -0.4602 -16.5651 0.9354 -1.5014 23.7022 0.0559 -0.7715 10.3241 0.0000 0.0000 0.0000 -81.7044 6.1255 39.7309 18.5184 -28.8159 -4.7965 -0.0000 0.0000 -7.9185 14.5529 26.1246 6.5212 -7.1250 0.0000 -0.0000 -16.6285 56.0680 -4.6048 0.0000 0.0000 0.0000 87.4542 -1.6075 44.4380 -13.2082 21.5915 -2.5294 0.0000 0.0000 7.7227 -23.7179 10.0128 -4.3682 7.1250 -0.0000 -0.0000 2.3334 -19.0694 1.4442
12.9366 17.9421 13.8991 177.3880 -38.1070 -166.7150 0.0000 0.0000 0.0000 -15.7350 -2.1763 -32.4522 6.8213 15.1796 48.1952 0.3373 -8.9353 -11.2849 0.6211 -5.0434 -14.0323 0.0000 0.0000 0.0000 18.8922 3.0698 -19.2290 -2.6192 -10.0514 29.1434 -1.0327 13.7906 -19.2525 -0.0236 -0.9927 2.7287 -1.2106 -1.2540 -6.9961 -0.2408 -1.6965 -2.5852 0.2953 -0.8921 1.2816 0.4733 -0.5464 -16.1559 0.6223 -1.5730 23.0628 -0.1047 -0.8100 10.0107 0.0000 0.0000 0.0000 -81.5953 6.0938 39.6578 18.5851 -28.8999 -4.8287 -0.0000 0.0000 -8.1815 14.8565 26.3477 6.7145 -7.1250 0.0000 -0.0000 -16.4463 56.3448 -4.6637 0.0000 0.0000 0.0000 87.5354 -1.4486 44.1289 -13.1078 21.4449 -2.4925 0.0000 0.0000 7.9938 -23.6806 10.2414 -4.4587 7.1250 -0.0000 -0.0000 2.3690 -18.8247 1.4791
12.9420 17.9430 13.8669 177.4430 -38.0069 -166.6760 0.0000 0.0000 0.0000 -15.5723 -2.3005 -33.3733 7.2050 15.5021 49.6453 0.3013 -8.3324 -10.6262 0.5726 -4.8460 -13.4699 0.0000 0.0000 0.0000 19.0216 2.9156 -19.2391 -2.5973 -10.0128 29.0181 -1.0049 14.0021 -19.1037 -0.0299 -1.1154 3.0665 -1.1525 -1.2109 -7.0903 -0.2412 -1.6348 -2.4592 0.2631 -0.8602 1.4612 0.1885 -0.4568 -16.6613 1.2372 -1.5535 23.5000 0.1576 -0.7529 10.2727 0.0000 0.0000 0.0000 -81.5601 5.9962 39.4120 18.6073 -28.9277 -4.8394 -0.0000 0.0000 -8.2031 15.0222 26.3843 6.8009 -7.1250 0.0000 -0.0000 -16.2977 56.4140 -4.6476 0.0000 0.0000 0.0000 87.5538 -1.2279 43.9824 -13.0666 21.3847 -2.4775 0.0000 0.0000 8.0218 -23.6018 10.3924 -4.5066 7.1250 -0.0000 -0.0000 2.4310 -18.6680 1.5264
12.9456 17.9402 13.8361 177.3970 -37.9105 -166.5720 0.0000 0.0000 0.0000 -15.5536 -2.3928 -34.3211 7.5779 15.7998 51.0277 0.2989 -7.6357 -10.3759 0.5925 -4.9279 -13.7030 0.0000 0.0000 0.0000 19.0798 2.8504 -19.2466 -2.5781 -9.9786 28.9073 -1.0068 13.9270 -19.0964 -0.0200 -0.9140 2.5122 -1.1442 -1.1891 -7.0760 -0.2695 -1.6019 -2.3890 0.2314 -0.8428 1.5241 0.2570 -0.4479 -16.7427 1.2379 -1.5515 23.4381 0.1469 -0.7424 10.2654 0.0000 -0.0000 0.0000 -81.4973 5.9816 39.2328 18.6191 -28.9426 -4.8451 -0.0000 0.0000 -8.2661 15.1600 26.3998 6.8694 -7.1250 0.0000 -0.0000 -16.1655 56.4574 -4.6256 0.0000 -0.0000 0.0000 87.5993 -1.0547 43.8931 -13.0426 21.3496 -2.4688 0.0000 0.0000 8.0157 -23.6070 10.3283 -4.4803 7.1250 -0.0000 -0.0000 2.4247 -18.7369 1.5187
12.9466 17.9358 13.8023 177.4190 -37.8569 -166.5420 0.0000 0.0000 0.0000 -15.5350 -2.4307 -35.2130 7.9290 16.0668 52.3066 0.3167 -6.9232 -10.4309 0.6167 -5.0260 -13.9827 0.0000 0.0000 0.0000 19.2146 2.7005 -19.2741 -2.5657 -9.9563 28.8355 -1.0110 13.7935 -19.0895 -0.0081 -0.5820 1.5992 -1.1083 -1.1749 -7.0051 -0.2518 -1.5847 -2.3676 0.2322 -0.8334 1.5062 0.5356 -0.5237 -16.3716 0.7549 -1.5687 22.8844 -0.0671 -0.7782 9.9887 -0.0000 0.0000 0.0000 -81.4536 6.0948 39.1368 18.6472 -28.9780 -4.8587 -0.0000 0.0000 -8.3205 15.2504 26.3155 6.8916 -7.1250 0.0000 -0.0000 -16.0247 56.3943 -4.5591 -0.0000 0.0000 0.0000 87.5916 -1.0558 43.7086 -13.0385 21.3436 -2.4673 0.0000 0.0000 8.0980 -23.6251 10.2825 -4.4645 7.1250 -0.0000 -0.0000 2.4101 -18.7850 1.5069
12.9465 17.9349 13.7650 177.4400 -37.7543 -166.4900 0.0000 0.0000 0.0000 -15.5388 -2.4122 -36.0764 8.2476 16.2984 53.4496 0.3374 -6.4733 -10.6180 0.6800 -5.2725 -14.6875 0.0000 0.0000 0.0000 19.2957 2.6190 -19.2568 -2.5585 -9.9435 28.7939 -0.9906 14.0473 -19.0086 -0.0108 -0.6724 1.8478 -1.1096 -1.1436 -6.9884 -0.2147 -1.5422 -2.3458 0.2747 -0.8116 1.5199 0.4352 -0.5135 -16.4635 0.8413 -1.5532 22.9654 -0.0188 -0.7694 10.0367 0.0000 0.0000 0.0000 -81.4788 6.1712 38.9106 18.6533 -28.9856 -4.8617 -0.0000 0.0000 -8.1788 15.2550 26.4029 6.9148 -7.1250 0.0000 -0.0000 -16.0699 56.4798 -4.6060 0.0000 0.0000 0.0000 87.4881 -1.0959 43.6701 -13.0855 21.4124 -2.4844 0.0000 0.0000 8.0033 -23.6044 10.2637 -4.4521 7.1250 -0.0000 -0.0000 2.4239 -18.8071 1.5144
12.9457 17.9345 13.7267 177.3520 -37.5611 -166.4300 0.0000 0.0000 0.0000 -15.6761 -2.2917 -36.8617 8.5263 16.4930 54.4369 0.3553 -6.2440 -10.8208 0.8039 -5.7223 -15.9808 0.0000 0.0000 0.0000 19.2304 2.7067 -19.0597 -2.5555 -9.9382 28.7769 -0.9561 14.4098 -18.8585 -0.0368 -1.2374 3.4023 -1.1904 -1.1051 -6.9628 -0.2302 -1.4813 -2.2716 0.3086 -0.7801 1.5828 0.3432 -0.5014 -16.5222 0.9630 -1.5409 22.9708 0.0409 -0.7563 10.0516 0.0000 0.0000 0.0000 -81.4279 6.2384 38.8293 18.6989 -29.0428 -4.8838 -0.0000 0.0000 -8.2287 15.4815 26.5292 7.0524 -7.1250 0.0000 -0.0000 -15.9096 56.6489 -4.6241 0.0000 0.0000 0.0000 87.4198 -0.9944 43.9268 -13.1367 21.4872 -2.5031 0.0000 0.0000 7.7248 -23.5829 10.3481 -4.4836 7.1250 -0.0000 -0.0000 2.4426 -18.7175 1.5310
12.9414 17.9342 13.6898 177.1640 -37.4192 -166.2780 0.0000 0.0000 0.0000 -15.8887 -2.3500 -37.5861 8.7706 16.6578 55.2935 0.3744 -6.1532 -11.0652 0.8416 -5.8518 -16.3549 0.0000 0.0000 0.0000 19.1067 2.6302 -18.9710 -2.5512 -9.9304 28.7518 -0.9419 14.5770 -18.8049 -0.0464 -1.3907 3.8246 -1.2937 -1.0785 -6.9366 -0.2866 -1.4368 -2.2416 0.3124 -0.7576 1.5994 0.2813 -0.4430 -16.6611 1.0883 -1.4859 23.1473 0.1012 -0.7225 10.1428 0.0000 0.0000 0.0000 -81.3849 6.3337 38.7299 18.6895 -29.0310 -4.8793 -0.0000 0.0000 -8.1898 15.7334 26.5472 7.1763 -7.1250 0.0000 -0.0000 -15.6604 56.7186 -4.5757 0.0000 0.0000 0.0000 87.4654 -0.8591 43.9924 -13.1317 21.4799 -2.5013 0.0000 0.0000 7.6230 -23.6386 10.3580 -4.4997 7.1250 -0.0000 -0.0000 2.4036 -18.7021 1.5073
12.9386 17.9349 13.6530 177.1170 -37.3821 -166.1820 0.0000 0.0000 0.0000 -15.9417 -2.5016 -38.3309 8.9862 16.7988 56.0423 0.3790 -6.2061 -11.1358 0.8258 -5.7980 -16.1995 0.0000 0.0000 0.0000 19.1484 2.5389 -18.9320 -2.5421 -9.9141 28.6990 -0.9392 14.6612 -18.8113 -0.0497 -1.4384 3.9560 -1.3069 -1.0975 -6.8713 -0.3008 -1.4604 -2.2205 0.3044 -0.7688 1.5853 0.3306 -0.3559 -16.9056 1.1398 -1.4024 23.3595 0.1207 -0.6729 10.2659 -0.0000 0.0000 0.0000 -81.3108 6.4202 38.6522 18.7056 -29.0512 -4.8871 -0.0000 0.0000 -8.2248 15.7812 26.6870 7.2338 -7.1250 0.0000 -0.0000 -15.6913 56.8643 -4.6408 -0.0000 0.0000 0.0000 87.5734 -0.7028 43.8259 -13.0516 21.3628 -2.4721 0.0000 0.0000 7.6721 -23.7530 10.6150 -4.6346 7.1250 -0.0000 -0.0000 2.3336 -18.4133 1.4783
12.9339 17.9346 13.6151 177.1640 -37.4105 -166.1960 0.0000 0.0000 0.0000 -15.8846 -2.6045 -39.0555 9.1774 16.9205 56.7015 0.3691 -6.4815 -11.0509 0.8405 -5.8479 -16.3437 0.0000 0.0000 0.0000 19.2910 2.4275 -18.7777 -2.5219 -9.8776 28.5813 -0.9268 14.7351 -18.7419 -0.0677 -1.6784 4.6176 -1.2724 -1.1616 -6.7782 -0.2645 -1.5456 -2.1605 0.3168 -0.8098 1.5969 0.4820 -0.3222 -16.9705 0.9770 -1.3443 23.2723 0.0462 -0.6487 10.2441 0.0000 0.0000 0.0000 -81.2747 6.4347 38.4899 18.6637 -28.9986 -4.8667 -0.0000 0.0000 -8.2267 15.7314 26.7224 7.2188 -7.1250 0.0000 -0.0000 -15.7633 56.8883 -4.6720 0.0000 0.0000 0.0000 87.5350 -0.5777 44.0976 -13.0369 21.3413 -2.4667 0.0000 0.0000 7.2322 -23.9907 11.2186 -4.9485 7.1250 -0.0000 -0.0000 2.1941 -17.7365 1.4224
12.9261 17.9342 13.5743 177.2170 -37.2708 -166.2710 0.0000 0.0000 0.0000 -15.8658 -2.5498 -39.6862 9.3366 17.0195 57.2470 0.3507 -6.8262 -10.8726 0.8089 -5.7398 -16.0314 0.0000 0.0000 0.0000 19.4056 2.4102 -18.5391 -2.5022 -9.8419 28.4662 -0.9088 14.8039 -18.6285 -0.0625 -1.6133 4.4382 -1.2089 -1.1008 -6.6923 -0.2593 -1.4672 -2.1221 0.2942 -0.7696 1.5861 0.4874 -0.3540 -16.8351 0.9007 -1.3630 23.1439 0.0169 -0.6658 10.1713 -0.0000 -0.0000 0.0000 -81.1931 6.5072 38.5913 18.5833 -28.8976 -4.8278 -0.0000 0.0000 -8.1280 15.7592 26.7962 7.2503 -7.1250 0.0000 -0.0000 -15.7775 56.9656 -4.7061 -0.0000 -0.0000 0.0000 87.4784 -0.5593 44.3261 -13.0619 21.3778 -2.4758 0.0000 0.0000 6.7864 -24.2378 11.6086 -5.1765 7.1250 -0.0000 -0.0000 2.0409 -17.2888 1.3430
12.9222 17.9299 13.5350 177.5140 -37.0968 -166.5690 0.0000 0.0000 0.0000 -15.6343 -2.4332 -40.2421 9.4690 17.1002 57.6982 0.3189 -7.2159 -10.5333 0.6850 -5.2914 -14.7415 0.0000 0.0000 0.0000 19.7622 2.5240 -18.2248 -2.4800 -9.8014 28.3359 -0.9532 14.5636 -18.8861 -0.0211 -0.9378 2.5778 -0.9441 -0.9485 -6.4667 -0.2147 -1.2822 -2.1163 0.2108 -0.6755 1.4595 0.3775 -0.4174 -16.5891 0.9446 -1.4312 23.0375 0.0428 -0.7045 10.0874 -0.0000 -0.0000 0.0000 -81.1427 6.6472 38.7246 18.5364 -28.8385 -4.8052 -0.0000 0.0000 -7.9563 15.8119 26.8116 7.2794 -7.1250 0.0000 -0.0000 -15.7318 56.9917 -4.7020 -0.0000 -0.0000 0.0000 87.5250 -0.6327 43.9985 -13.0763 21.3989 -2.4811 0.0000 0.0000 6.8865 -24.2995 11.6541 -5.2113 7.1250 -0.0000 -0.0000 2.0001 -17.2331 1.3186
12.9129 17.9343 13.4975 177.0180 -37.0791 -166.0480 0.0000 0.0000 0.0000 -16.1344 -2.7617 -40.9890 9.5483 17.1479 57.9677 0.3119 -7.3163 -10.4646 0.5920 -4.9260 -13.6975 0.0000 0.0000 0.0000 19.4186 2.1295 -18.4915 -2.4616 -9.7677 28.2278 -0.9821 14.6597 -19.1336 -0.0018 -0.2736 0.7517 -1.2757 -0.9804 -6.5962 -0.2991 -1.3058 -2.1733 0.3062 -0.6892 1.4781 0.2583 -0.3985 -16.6621 1.0266 -1.4084 23.2343 0.0933 -0.6976 10.1735 0.0000 -0.0000 0.0000 -81.1215 6.7505 38.7720 18.4953 -28.7868 -4.7854 -0.0000 0.0000 -8.0253 15.8006 26.8080 7.2731 -7.1250 0.0000 -0.0000 -15.7414 56.9858 -4.7027 0.0000 -0.0000 0.0000 87.4743 -0.6413 43.9394 -13.1245 21.4694 -2.4987 0.0000 0.0000 6.9209 -24.2869 11.5125 -5.1462 7.1250 -0.0000 -0.0000 2.0015 -17.3884 1.3127
12.9046 17.9359 13.4581 176.8000 -37.0277 -165.8360 0.0000 0.0000 0.0000 -16.3977 -2.9321 -41.6347 9.5962 17.1764 58.1300 0.3178 -7.3744 -10.5608 0.6234 -5.0526 -14.0586 0.0000 0.0000 0.0000 19.3072 1.9414 -18.5017 -2.4458 -9.7388 28.1348 -0.9911 14.7771 -19.2379 -0.0003 -0.1131 0.3106 -1.4678 -1.0215 -6.5831 -0.2863 -1.3495 -2.1843 0.4240 -0.7110 1.4646 0.0827 -0.3136 -16.9537 1.1434 -1.2992 23.6633 0.1759 -0.6526 10.3859 0.0000 -0.0000 0.0000 -81.1803 6.8310 38.6249 18.4489 -28.7282 -4.7631 -0.0000 0.0000 -7.9884 15.6107 26.8695 7.1972 -7.1250 0.0000 -0.0000 -15.9738 57.0056 -4.7823 0.0000 -0.0000 0.0000 87.3170 -0.6314 44.2169 -13.2029 21.5838 -2.5274 0.0000 0.0000 6.8287 -24.2076 11.6680 -5.1952 7.1250 -0.0000 -0.0000 2.0651 -17.2272 1.3617
